<mxfile host="app.diagrams.net" modified="2024-02-12T14:27:29.229Z" agent="Mozilla/5.0 (Macintosh; Intel Mac OS X 10_15_7) AppleWebKit/537.36 (KHTML, like Gecko) Chrome/121.0.0.0 Safari/537.36" version="23.1.1" etag="nQHHkvEFt3gd3PdDvfz1" type="github">
  <diagram name="페이지-1" id="OBI8d3PR-0S073GIq8ck">
    <mxGraphModel>
      <root>
        <mxCell id="0" />
        <mxCell id="1" parent="0" />
      </root>
    </mxGraphModel>
  </diagram>
</mxfile>
